<?xml version="1.0" encoding="UTF-8" standalone="no"?><!DOCTYPE svg PUBLIC "-//W3C//DTD SVG 1.1//EN" "http://www.w3.org/Graphics/SVG/1.1/DTD/svg11.dtd"><svg width="100%" height="100%" viewBox="0 0 600 600" version="1.1" xmlns="http://www.w3.org/2000/svg" xmlns:xlink="http://www.w3.org/1999/xlink" xml:space="preserve" xmlns:serif="http://www.serif.com/" style="fill-rule:evenodd;clip-rule:evenodd;stroke-linejoin:round;stroke-miterlimit:2;"><rect id="Favicon" x="0" y="0" width="600" height="600" style="fill:none;"/><style>g { fill: #1a1a1a; } @media (prefers-color-scheme: dark) { g { fill: #f0ebe0; } }</style><g><path d="M422.058,70.54c-101.038,-8.9 -168.849,106.587 -113.194,191.471c27.567,42.045 53.824,54.779 38.914,112.617c-7.705,29.883 -17.027,50.177 -13.411,82.747c13.283,119.615 177.336,122.34 204.994,7.059c26.446,-110.227 -93.161,-171.681 -179.271,-199.598c-10.558,-3.422 -32.616,-4.375 -28.887,-21.031c0.856,-3.818 5.762,-6.661 9.437,-7.049c23.309,-2.462 49.709,21.065 71.566,29.232c77.284,28.885 140.358,-46.749 113.028,-120.519c-15.648,-42.236 -58.896,-71.029 -103.175,-74.929" style="fill-rule:nonzero;"/><path d="M169.35,61.657c-61.414,-7.24 -108.247,43.909 -98.522,104.468c12.764,79.462 110.032,97.444 173.129,120.143c17.31,6.226 48.259,15.277 47.786,38.125c-0.324,15.709 -17.745,26.88 -32.248,21.56c-12.016,-4.408 -25.166,-26.65 -36.214,-36.202c-78.114,-67.525 -191.834,10.724 -162.607,107.731c19.989,66.361 94.449,92.313 156.406,67.4c40.142,-16.141 84.133,-60.691 102.864,-99.426c30.808,-63.72 -14.723,-83.405 -37.793,-133.945c-30.325,-66.425 -17.617,-178.633 -112.801,-189.855" style="fill-rule:nonzero;"/></g></svg>