<?xml version="1.0" encoding="UTF-8" standalone="no"?>
<!DOCTYPE svg PUBLIC "-//W3C//DTD SVG 1.1//EN" "http://www.w3.org/Graphics/SVG/1.1/DTD/svg11.dtd">
<svg width="100%" height="100%" viewBox="0 0 155 155" version="1.1" xmlns="http://www.w3.org/2000/svg" xmlns:xlink="http://www.w3.org/1999/xlink" xml:space="preserve" xmlns:serif="http://www.serif.com/" style="fill-rule:evenodd;clip-rule:evenodd;stroke-linejoin:round;stroke-miterlimit:2;">
    <g id="Background" transform="matrix(1.085753,0,0,1.085753,-1.176235,16.167857)">
        <path d="M66.506,1.996C105.207,2.448 113.489,2.028 126.395,8.701C135.825,13.577 140.997,23.685 141.616,30.49C143.573,51.999 137.485,58.974 132.739,63.739C119.472,77.055 113.987,70.612 111.453,75.472C106.651,84.683 108.495,85.982 97.739,96.739C96.465,98.012 89.608,104.869 78.438,108.316C65.309,112.366 48.074,110.112 45.456,109.77C37.003,108.665 24.865,102.259 20.739,98.255C6.828,84.753 3.267,69.515 2.288,49.51C1.011,23.395 5.101,18.375 11.738,11.738C21.837,1.64 32.301,2.836 66.506,1.996L102.913,63.949C105.438,62.858 105.481,63.111 108.543,62.851C133.806,60.708 133.847,32.878 127.186,24.757C119.234,15.059 113.8,13.781 68.493,14.05C29.096,14.284 23.042,13.781 16.201,24.301C12.951,29.298 13.625,54.972 15.642,64.467C16.056,66.418 19.007,80.311 25.746,87.261C34.706,96.503 43.374,97.713 48.503,98.479C52.301,99.046 65.945,99.048 69.495,98.464C98.011,93.778 100.956,67.686 102.913,63.949L66.506,1.996Z" style="fill-opacity:1;"/>
        <path d="M39.632,28.95C50.554,26.436 53.896,29.446 57.735,33.26C61.254,36.755 61.83,29.564 69.471,28.303C81.285,26.352 89.236,33.92 90.721,43.468C93.688,62.541 69.087,77.357 68.586,77.638C61.44,81.646 59.849,83.522 51.275,77.807C37.666,68.737 38.175,68.042 31.807,59.276C30.168,57.021 27.53,49.045 28.23,44.457C29.807,34.129 35.24,30.996 39.632,28.95Z"/>
        <path d="M103.995,49.037C103.556,47.875 103.351,47.933 103.224,44.514C102.637,28.786 103.278,27.401 106.458,27.124C114.778,26.401 121.249,33.516 117.912,43.633C115.993,49.451 108.92,51.335 103.995,49.037Z" style="fill-opacity:1;"/>
    </g>
</svg>
